<?xml version="1.0" encoding="iso-8859-1"?>
<!-- Generator: Adobe Illustrator 19.0.0, SVG Export Plug-In . SVG Version: 6.00 Build 0)  -->
<svg version="1.1" id="Capa_1" xmlns="http://www.w3.org/2000/svg" xmlns:xlink="http://www.w3.org/1999/xlink" x="0px" y="0px"
	 viewBox="0 0 470 470" style="enable-background:new 0 0 470 470;" xml:space="preserve">
<g>
	<path style="fill:#B2AFAF;" d="M432.5,102.307H155.414v15h15.151c0.695-3.424,3.721-6,7.349-6s6.654,2.576,7.349,6h99.474
		c0.695-3.424,3.721-6,7.349-6s6.654,2.576,7.349,6h154.279C450.62,108.576,442.278,102.307,432.5,102.307z"/>
	<rect x="15" y="95.64" style="fill:#FF382E;" width="125.414" height="28.334"/>
	<path style="fill:#3F3736;" d="M143.207,215.64v28.334h27.357c0.695-3.424,3.721-6,7.349-6s6.654,2.576,7.349,6h99.474
		c0.695-3.424,3.721-6,7.349-6s6.654,2.576,7.349,6h87.357V215.64H143.207z"/>
	<rect x="83.207" y="215.64" style="fill:#3F3736;" width="15" height="28.334"/>
	<rect x="113.207" y="215.64" style="fill:#3F3736;" width="15" height="28.334"/>
	<path style="fill:#1C1918;" d="M432.5,87.307H155.414V78.14c0-4.143-3.358-7.5-7.5-7.5s-7.5,3.357-7.5,7.5v2.5H7.5
		c-4.142,0-7.5,3.357-7.5,7.5v43.334c0,4.143,3.358,7.5,7.5,7.5h132.914v2.5c0,4.143,3.358,7.5,7.5,7.5s7.5-3.357,7.5-7.5v-9.167h15
		v68.333h-27.207v-2.5c0-4.143-3.358-7.5-7.5-7.5s-7.5,3.357-7.5,7.5v2.5h-15v-2.5c0-4.143-3.358-7.5-7.5-7.5s-7.5,3.357-7.5,7.5
		v2.5h-22.5c-4.142,0-7.5,3.357-7.5,7.5v43.334c0,4.143,3.358,7.5,7.5,7.5h22.5v2.5c0,4.143,3.358,7.5,7.5,7.5s7.5-3.357,7.5-7.5
		v-2.5h15v2.5c0,4.143,3.358,7.5,7.5,7.5s7.5-3.357,7.5-7.5v-2.5h27.207v69.551h-38.871c-34.923,0-63.335,28.412-63.335,63.336
		c0,4.143,3.358,7.5,7.5,7.5h318.586c4.142,0,7.5-3.357,7.5-7.5c0-34.924-28.412-63.336-63.335-63.336h-38.871v-69.551h94.707
		c4.142,0,7.5-3.357,7.5-7.5V208.14c0-4.143-3.358-7.5-7.5-7.5h-94.707v-68.333H462.5c4.142,0,7.5-3.357,7.5-7.5
		C470,104.129,453.178,87.307,432.5,87.307z M299.436,117.307c-0.695-3.424-3.721-6-7.349-6s-6.654,2.576-7.349,6h-99.474
		c-0.695-3.424-3.721-6-7.349-6s-6.654,2.576-7.349,6h-15.151v-15H432.5c9.778,0,18.12,6.27,21.215,15H299.436z M15,95.64h125.414
		v28.334H15V95.64z M386.793,243.974h-87.357c-0.695-3.424-3.721-6-7.349-6s-6.654,2.576-7.349,6h-99.474
		c-0.695-3.424-3.721-6-7.349-6s-6.654,2.576-7.349,6h-27.357V215.64h243.586V243.974z M83.207,215.64h15v28.334h-15V215.64z
		 M113.207,215.64h15v28.334h-15V215.64z M131.542,343.524h38.871v40.836H83.788C87.403,361.257,107.441,343.524,131.542,343.524z
		 M284.586,384.36h-99.173v-46.42c8.61-15.106,24.539-24.416,41.996-24.416h15.182c17.456,0,33.386,9.31,41.996,24.416V384.36z
		 M299.586,384.36v-40.836h38.871c24.102,0,44.14,17.732,47.754,40.836H299.586z M284.586,314.434
		c-11.383-10.1-26.211-15.909-41.996-15.909h-15.182c-15.784,0-30.613,5.809-41.996,15.909v-55.46h99.173V314.434z M284.586,200.64
		h-99.173v-68.333h99.173V200.64z"/>
	<path style="fill:#D19884;" d="M338.458,343.524h-38.871v40.836h86.625C382.597,361.257,362.559,343.524,338.458,343.524z"/>
	<path style="fill:#D19884;" d="M242.591,313.524h-15.182c-17.456,0-33.386,9.31-41.996,24.416v46.42h99.173v-46.42
		C275.977,322.834,260.047,313.524,242.591,313.524z"/>
	<path style="fill:#D19884;" d="M170.414,384.36v-40.836h-38.871c-24.102,0-44.14,17.732-47.754,40.836H170.414z"/>
</g>
<g>
</g>
<g>
</g>
<g>
</g>
<g>
</g>
<g>
</g>
<g>
</g>
<g>
</g>
<g>
</g>
<g>
</g>
<g>
</g>
<g>
</g>
<g>
</g>
<g>
</g>
<g>
</g>
<g>
</g>
</svg>
